<svg xmlns="http://www.w3.org/2000/svg" aria-hidden="true" style="position:absolute;width:0;height:0;overflow:hidden">
  <defs>
    <symbol id="icon-icon-red" viewBox="0 0 33 32">
      <path fill="#f03e3d" style="fill: var(--color1, #f03e3d)"
        d="M12.667 1.333h6.726c6.259 0 11.333 5.074 11.333 11.333v6.667c0 6.259-5.074 11.333-11.333 11.333h-6.726c-6.259 0-11.333-5.074-11.333-11.333v-6.667c0-6.259 5.074-11.333 11.333-11.333z">
      </path>
      <path fill="none" stroke="#fff" style="stroke: var(--color2, #fff)" stroke-linejoin="miter" stroke-linecap="butt"
        stroke-miterlimit="4" stroke-width="2.6667"
        d="M12.667 1.333h6.726c6.259 0 11.333 5.074 11.333 11.333v6.667c0 6.259-5.074 11.333-11.333 11.333h-6.726c-6.259 0-11.333-5.074-11.333-11.333v-6.667c0-6.259 5.074-11.333 11.333-11.333z">
      </path>
      <path fill="none" stroke="#f03e3d" style="stroke: var(--color1, #f03e3d)" stroke-linejoin="miter"
        stroke-linecap="butt" stroke-miterlimit="4" stroke-width="2.6667"
        d="M12.667 1.333h6.726c6.259 0 11.333 5.074 11.333 11.333v6.667c0 6.259-5.074 11.333-11.333 11.333h-6.726c-6.259 0-11.333-5.074-11.333-11.333v-6.667c0-6.259 5.074-11.333 11.333-11.333z">
      </path>
      <path fill="#fff" style="fill: var(--color2, #fff)"
        d="M23.601 11.19c-0.286-0.292-0.75-0.292-1.036 0l-8.779 8.949-3.375-3.44c-0.286-0.292-0.75-0.292-1.036 0s-0.286 0.765 0 1.056l3.893 3.968c0.286 0.292 0.75 0.291 1.036 0l9.297-9.478c0.286-0.292 0.286-0.765 0-1.056z">
      </path>
    </symbol>
    <symbol id="icon-icon-blue" viewBox="0 0 33 32">
      <path fill="#4d8dff"
        d="M12.667 1.333h6.726c6.259 0 11.333 5.074 11.333 11.333v6.667c0 6.259-5.074 11.333-11.333 11.333h-6.726c-6.259 0-11.333-5.074-11.333-11.333v-6.667c0-6.259 5.074-11.333 11.333-11.333z"
        style="fill:var(--color3, #4d8dff)" />
      <path fill="none" stroke="#fff" stroke-width="2.667"
        d="M12.667 1.333h6.726c6.259 0 11.333 5.074 11.333 11.333v6.667c0 6.259-5.074 11.333-11.333 11.333h-6.726c-6.259 0-11.333-5.074-11.333-11.333v-6.667c0-6.259 5.074-11.333 11.333-11.333z"
        style="stroke:var(--color2, #fff)" />
      <path fill="none" stroke="#4d8dff" stroke-width="2.667"
        d="M12.667 1.333h6.726c6.259 0 11.333 5.074 11.333 11.333v6.667c0 6.259-5.074 11.333-11.333 11.333h-6.726c-6.259 0-11.333-5.074-11.333-11.333v-6.667c0-6.259 5.074-11.333 11.333-11.333z"
        style="stroke:var(--color3, #4d8dff)" />
      <path fill="#fff"
        d="M23.601 11.19a.722.722 0 0 0-1.036 0l-8.779 8.949-3.375-3.44c-.286-.292-.75-.292-1.036 0s-.286.765 0 1.056l3.893 3.968a.723.723 0 0 0 1.036 0l9.297-9.478a.757.757 0 0 0 0-1.056z"
        style="fill:var(--color2, #fff)" />
    </symbol>
    <symbol id="icon-icon-orange" viewBox="0 0 33 32">
      <path fill="#f90"
        d="M12.667 1.333h6.726c6.259 0 11.333 5.074 11.333 11.333v6.667c0 6.259-5.074 11.333-11.333 11.333h-6.726c-6.259 0-11.333-5.074-11.333-11.333v-6.667c0-6.259 5.074-11.333 11.333-11.333z"
        style="fill:var(--color4, #f90)" />
      <path fill="none" stroke="#fff" stroke-width="2.667"
        d="M12.667 1.333h6.726c6.259 0 11.333 5.074 11.333 11.333v6.667c0 6.259-5.074 11.333-11.333 11.333h-6.726c-6.259 0-11.333-5.074-11.333-11.333v-6.667c0-6.259 5.074-11.333 11.333-11.333z"
        style="stroke:var(--color2, #fff)" />
      <path fill="none" stroke="#f90" stroke-width="2.667"
        d="M12.667 1.333h6.726c6.259 0 11.333 5.074 11.333 11.333v6.667c0 6.259-5.074 11.333-11.333 11.333h-6.726c-6.259 0-11.333-5.074-11.333-11.333v-6.667c0-6.259 5.074-11.333 11.333-11.333z"
        style="stroke:var(--color4, #f90)" />
      <path fill="#fff"
        d="M23.601 11.19a.722.722 0 0 0-1.036 0l-8.779 8.949-3.375-3.44c-.286-.292-.75-.292-1.036 0s-.286.765 0 1.056l3.893 3.968a.723.723 0 0 0 1.036 0l9.297-9.478a.757.757 0 0 0 0-1.056z"
        style="fill:var(--color2, #fff)" />
    </symbol>
    <symbol id="icon-tick" viewBox="0 0 45 32">
      <path
        d="M42.17 0.638c-0.834-0.851-2.188-0.851-3.022 0l-25.606 26.102-9.843-10.033c-0.835-0.851-2.188-0.851-3.023 0s-0.835 2.23 0 3.081l11.354 11.574c0.834 0.851 2.189 0.85 3.023 0l27.117-27.643c0.835-0.851 0.835-2.23 0-3.081z">
      </path>
    </symbol>
    <symbol id="icon-cloud" viewBox="0 0 134 32">
      <path
        d="M130.254 14.895c0-6.235-5.272-11.289-11.776-11.289h-103.096c-6.504 0-11.776 5.054-11.776 11.289s5.272 11.289 11.776 11.289h103.096c6.504 0 11.776-5.054 11.776-11.289z">
      </path>
    </symbol>
  </defs>
</svg>